<svg width="480" height="96" viewBox="0 0 480 96" fill="none" xmlns="http://www.w3.org/2000/svg">
  <rect width="480" height="96" fill="white"/>
  <path d="M279 11C309 12 374 15 421 31C449 41 466 55 466 69C466 81 453 90 436 94C450 88 458 79 458 69C458 55 439 43 411 35C374 24 321 20 291 18L279 11Z" fill="#FF6A1A"/>
  <path d="M256 3L299 15L319 31L286 22L318 36L299 41L247 26L256 3Z" fill="#FF6A1A"/>
  <path d="M33 28H58C70 28 78 31 84 37C89 42 91 49 91 58C91 67 88 75 82 80C76 86 67 89 55 89H33V28ZM52 45V72H55C62 72 67 66 67 58C67 50 63 45 55 45H52Z" fill="#111111"/>
  <path d="M101 28H164V45H121V51H158V66H121V72H165V89H101V28Z" fill="#111111"/>
  <path d="M175 28H214C225 28 233 30 238 35C243 39 246 46 246 54C246 64 241 71 232 75L247 89H223L210 77H195V89H175V28ZM195 44V61H209C216 61 220 58 220 52C220 47 216 44 209 44H195Z" fill="#FF6A1A"/>
  <path d="M259 28H283L307 89H286L283 79H259L256 89H235L259 28ZM264 63H278L271 42L264 63Z" fill="#FF6A1A"/>
  <path d="M307 28H372V45H350V89H329V45H307V28Z" fill="#FF6A1A"/>
  <path d="M379 28H443V45H400V51H437V66H400V72H444V89H379V28Z" fill="#FF6A1A"/>
  <path d="M33 28H58C70 28 78 31 84 37C89 42 91 49 91 58C91 67 88 75 82 80C76 86 67 89 55 89H33V28ZM52 45V72H55C62 72 67 66 67 58C67 50 63 45 55 45H52Z" fill="#111111"/>
  <path d="M103 28H121V72H158V89H103V28Z" fill="#111111" transform="translate(236 0)"/>
  <path d="M103 28H121V72H158V89H103V28Z" fill="#111111" transform="translate(282 0)"/>
  <path d="M33 28H58C70 28 78 31 84 37C89 42 91 49 91 58C91 67 88 75 82 80C76 86 67 89 55 89H33V28ZM52 45V72H55C62 72 67 66 67 58C67 50 63 45 55 45H52Z" fill="#111111" transform="translate(357 0)"/>
</svg>
